<?xml version="1.0" encoding="iso-8859-1"?>
<!-- Generator: Adobe Illustrator 19.0.0, SVG Export Plug-In . SVG Version: 6.00 Build 0)  -->
<svg version="1.1" id="Capa_1" xmlns="http://www.w3.org/2000/svg" xmlns:xlink="http://www.w3.org/1999/xlink" x="0px" y="0px"
	 viewBox="0 0 512 512" style="enable-background:new 0 0 512 512;" xml:space="preserve">
<path style="fill:#D63D76;" d="M317,398.5h-30v45h30c12.426,0,22.5-10.074,22.5-22.5S329.426,398.5,317,398.5z"/>
<path style="fill:#FF4181;" d="M421,172.5c0-91.127-73.873-165-165-165S91,81.373,91,172.5c0,83.494,62.019,152.491,142.5,163.467
	V398.5H195c-12.426,0-22.5,10.074-22.5,22.5s10.074,22.5,22.5,22.5h38.5V482c0,12.426,10.074,22.5,22.5,22.5s22.5-10.074,22.5-22.5
	v-38.5h8.5c12.426,0,22.5-10.074,22.5-22.5s-10.074-22.5-22.5-22.5h-8.5v-62.533C358.981,324.991,421,255.994,421,172.5z M256,292.5
	c-66.274,0-120-53.726-120-120s53.726-120,120-120s120,53.726,120,120S322.274,292.5,256,292.5z"/>
<path d="M256,0C160.883,0,83.5,77.383,83.5,172.5c0,41.965,15.249,82.409,42.938,113.881c25.979,29.529,61.131,49.253,99.562,56.004
	V391h-31c-16.542,0-30,13.458-30,30c0,8.013,3.121,15.547,8.787,21.213S186.987,451,195,451h31v31c0,16.542,13.458,30,30,30
	s30-13.458,30-30v-31h31c8.014,0,15.547-3.121,21.213-8.787c5.666-5.667,8.787-13.2,8.787-21.213c0-16.542-13.458-30-30-30h-31
	v-48.614c38.431-6.751,73.582-26.476,99.562-56.004C413.251,254.909,428.5,214.465,428.5,172.5C428.5,77.383,351.117,0,256,0z
	 M277.486,328.535c-3.716,0.507-6.486,3.681-6.486,7.431V398.5c0,4.142,3.357,7.5,7.5,7.5H317c8.271,0,15,6.729,15,15
	c0,4.006-1.561,7.773-4.394,10.607C324.773,434.44,321.007,436,317,436h-38.5c-4.143,0-7.5,3.358-7.5,7.5V482
	c0,8.271-6.729,15-15,15s-15-6.729-15-15v-38.5c0-4.142-3.357-7.5-7.5-7.5H195c-4.007,0-7.773-1.56-10.606-4.393
	C181.561,428.773,180,425.006,180,421c0-8.271,6.729-15,15-15h38.5c4.143,0,7.5-3.358,7.5-7.5v-62.534
	c0-3.75-2.771-6.924-6.486-7.431C156.973,317.96,98.5,250.88,98.5,172.5C98.5,85.654,169.154,15,256,15s157.5,70.654,157.5,157.5
	C413.5,250.88,355.027,317.96,277.486,328.535z"/>
<path d="M256,45c-28.605,0-55.641,9.262-78.183,26.785c-3.271,2.542-3.861,7.254-1.319,10.524c2.542,3.27,7.255,3.86,10.524,1.318
	C206.908,68.17,230.76,60,256,60c62.032,0,112.5,50.467,112.5,112.5S318.032,285,256,285s-112.5-50.467-112.5-112.5
	c0-25.241,8.17-49.093,23.628-68.978c2.542-3.271,1.951-7.982-1.319-10.524c-3.269-2.542-7.981-1.953-10.524,1.318
	C137.762,116.858,128.5,143.894,128.5,172.5c0,70.304,57.196,127.5,127.5,127.5s127.5-57.196,127.5-127.5S326.304,45,256,45z"/>
<g>
</g>
<g>
</g>
<g>
</g>
<g>
</g>
<g>
</g>
<g>
</g>
<g>
</g>
<g>
</g>
<g>
</g>
<g>
</g>
<g>
</g>
<g>
</g>
<g>
</g>
<g>
</g>
<g>
</g>
</svg>
